<?xml version="1.0" standalone="no"?>
<!DOCTYPE svg PUBLIC "-//W3C//DTD SVG 20010904//EN"
 "http://www.w3.org/TR/2001/REC-SVG-20010904/DTD/svg10.dtd">
<svg version="1.0" xmlns="http://www.w3.org/2000/svg"
 width="950.000000pt" height="950.000000pt" viewBox="0 0 950.000000 950.000000"
 preserveAspectRatio="xMidYMid meet">
<metadata>
Created by potrace 1.16, written by Peter Selinger 2001-2019
</metadata>
<g transform="translate(0.000000,950.000000) scale(0.100000,-0.100000)"
fill="#000000" stroke="none">
<path d="M4360 9439 c-613 -53 -1197 -217 -1738 -488 -454 -227 -832 -501
-1203 -871 -297 -296 -503 -557 -711 -900 -914 -1513 -899 -3428 41 -4925 202
-321 393 -559 675 -841 365 -363 741 -635 1196 -863 435 -217 881 -363 1350
-440 428 -71 930 -80 1365 -25 796 102 1582 420 2220 899 499 375 928 856
1239 1388 351 600 554 1234 627 1957 17 162 17 667 1 835 -80 814 -333 1532
-778 2200 -336 505 -788 958 -1289 1292 -641 427 -1321 675 -2109 769 -155 19
-726 27 -886 13z m-363 -2941 l743 -743 745 745 745 745 502 -503 503 -502
-745 -745 -745 -745 745 -745 745 -745 -503 -502 -502 -503 -748 748 -747 747
-748 -747 -747 -748 -500 500 -500 500 747 747 748 748 -743 743 c-408 408
-742 747 -742 752 0 13 982 995 995 995 5 0 344 -334 752 -742z"/>
</g>
</svg>
